<svg xmlns="http://www.w3.org/2000/svg" width="826.956" height="164.309" viewBox="0 0 826.956 164.309">
  <g id="グループ_2" data-name="グループ 2" transform="translate(-23.044 -875.834)">
    <path id="パス_1" data-name="パス 1" d="M56.3,0,0,129" transform="translate(39.5 893.5)" fill="rgba(0,0,0,0)" stroke="#707070" stroke-linecap="round" stroke-linejoin="round" stroke-width="25"/>
    <path id="パス_2" data-name="パス 2" d="M56.3,0,0,129" transform="translate(95.801 893.5)" fill="rgba(0,0,0,0)" stroke="#707070" stroke-linecap="round" stroke-linejoin="round" stroke-width="25"/>
    <path id="パス_3" data-name="パス 3" d="M0,0V129" transform="translate(95.801 893.5)" fill="rgba(0,0,0,0)" stroke="#707070" stroke-linecap="round" stroke-linejoin="round" stroke-width="25"/>
    <path id="パス_6" data-name="パス 6" d="M56.3,0H0" transform="translate(137.414 1022.5)" fill="rgba(0,0,0,0)" stroke="#707070" stroke-linecap="round" stroke-linejoin="round" stroke-width="25"/>
    <path id="パス_4" data-name="パス 4" d="M56.3,0H0" transform="translate(165.564 958.614)" fill="rgba(0,0,0,0)" stroke="#707070" stroke-linecap="round" stroke-linejoin="round" stroke-width="25"/>
    <path id="パス_5" data-name="パス 5" d="M56.3,0H0" transform="translate(193.715 894.729)" fill="rgba(0,0,0,0)" stroke="#707070" stroke-linecap="round" stroke-linejoin="round" stroke-width="25"/>
    <path id="パス_7" data-name="パス 7" d="M56.3,0H0" transform="translate(235.328 1022.5)" fill="rgba(0,0,0,0)" stroke="#707070" stroke-linecap="round" stroke-linejoin="round" stroke-width="25"/>
    <path id="パス_8" data-name="パス 8" d="M56.3,0H0" transform="translate(291.629 894.729)" fill="rgba(0,0,0,0)" stroke="#707070" stroke-linecap="round" stroke-linejoin="round" stroke-width="25"/>
    <path id="パス_9" data-name="パス 9" d="M112.6,0,0,127.772" transform="translate(235.328 894.729)" fill="rgba(0,0,0,0)" stroke="#707070" stroke-linecap="round" stroke-linejoin="round" stroke-width="25"/>
    <path id="パス_10" data-name="パス 10" d="M56.3,0,0,129" transform="translate(333.242 893.5)" fill="rgba(0,0,0,0)" stroke="#707070" stroke-linecap="round" stroke-linejoin="round" stroke-width="25"/>
    <path id="パス_11" data-name="パス 11" d="M56.3,0,0,129" transform="translate(389.543 893.5)" fill="rgba(0,0,0,0)" stroke="#707070" stroke-linecap="round" stroke-linejoin="round" stroke-width="25"/>
    <path id="パス_12" data-name="パス 12" d="M56.3,0H0" transform="translate(333.242 1022.5)" fill="rgba(0,0,0,0)" stroke="#707070" stroke-linecap="round" stroke-linejoin="round" stroke-width="25"/>
    <path id="パス_13" data-name="パス 13" d="M56.3,0H0" transform="translate(432.38 1022.5)" fill="rgba(0,0,0,0)" stroke="#707070" stroke-linecap="round" stroke-linejoin="round" stroke-width="25"/>
    <path id="パス_14" data-name="パス 14" d="M56.3,0H0" transform="translate(488.681 894.729)" fill="rgba(0,0,0,0)" stroke="#707070" stroke-linecap="round" stroke-linejoin="round" stroke-width="25"/>
    <path id="パス_15" data-name="パス 15" d="M0,0V121.629" transform="translate(488.681 894.729)" fill="rgba(0,0,0,0)" stroke="#707070" stroke-linecap="round" stroke-linejoin="round" stroke-width="25"/>
    <path id="パス_16" data-name="パス 16" d="M56.3,0,0,129" transform="translate(536.414 893.5)" fill="rgba(0,0,0,0)" stroke="#707070" stroke-linecap="round" stroke-linejoin="round" stroke-width="25"/>
    <path id="パス_18" data-name="パス 18" d="M56.3,0,0,129" transform="translate(592.715 893.5)" fill="rgba(0,0,0,0)" stroke="#707070" stroke-linecap="round" stroke-linejoin="round" stroke-width="25"/>
    <path id="パス_17" data-name="パス 17" d="M56.3,0H0" transform="translate(536.414 1022.5)" fill="rgba(0,0,0,0)" stroke="#707070" stroke-linecap="round" stroke-linejoin="round" stroke-width="25"/>
    <path id="パス_19" data-name="パス 19" d="M67.316,0,0,62.657" transform="translate(666.15 893.5)" fill="rgba(0,0,0,0)" stroke="#707070" stroke-linecap="round" stroke-linejoin="round" stroke-width="25"/>
    <path id="パス_20" data-name="パス 20" d="M11.015,66.343,0,0" transform="translate(666.15 956.157)" fill="rgba(0,0,0,0)" stroke="#707070" stroke-linecap="round" stroke-linejoin="round" stroke-width="25"/>
    <path id="パス_21" data-name="パス 21" d="M56.3,0H0" transform="translate(724.899 1022.5)" fill="rgba(0,0,0,0)" stroke="#707070" stroke-linecap="round" stroke-linejoin="round" stroke-width="25"/>
    <path id="パス_22" data-name="パス 22" d="M56.3,0H0" transform="translate(753.049 958.614)" fill="rgba(0,0,0,0)" stroke="#707070" stroke-linecap="round" stroke-linejoin="round" stroke-width="25"/>
    <path id="パス_23" data-name="パス 23" d="M56.3,0H0" transform="translate(781.199 894.729)" fill="rgba(0,0,0,0)" stroke="#707070" stroke-linecap="round" stroke-linejoin="round" stroke-width="25"/>
  </g>
</svg>
